<svg viewBox="0 0 244.4 40" xmlns="http://www.w3.org/2000/svg"><g fill="#231815"><path d="m3.8 24.19c-.32 1.94-.55 3.81-.55 5.77 0 1.72.13 5.87 1.64 5.87.96 0 1.79-1.98 2.32-3.53l2.45 1.43c-.57 1.66-2.04 5.56-4.96 5.56-3.97.01-4.43-6.46-4.43-9.61 0-1.94.21-4.26.34-5.77zm9.88 13.24c.02-.38.04-.77.04-1.36 0-6.43-2.11-9.17-3.32-10.19l2.41-1.6c1.7 1.72 4.26 4.34 4.13 12.96z"/><path d="m27.64 23.04h3.09v1.75h4.96v2.77h-4.96v4.06c.13.64.34 1.51.34 2.6 0 4.92-5.09 5.73-8.32 5.77l-.92-2.66c1.26 0 2.47-.04 3.73-.28 1.79-.36 2.09-1.11 2.26-1.53-.4.28-.77.53-1.75.53-2.45 0-3.89-1.87-3.89-3.9 0-1.66 1.19-3.85 4.17-3.85.58 0 1.04.15 1.41.26l-.04-1h-8.68v-2.77h8.62l-.04-1.75zm.23 8.87c0-.21-.13-1.34-1.38-1.34-.21 0-1.57.08-1.57 1.62 0 .64.28 1.66 1.53 1.66.89 0 1.41-.58 1.41-1.41v-.53z"/><path d="m39.92 35.38c2.6-.34 3.9-.96 4.13-1.08.19-.09.74-.43.74-.98 0-1.41-4.21-4.64-6.56-6.09l2.55-2.19c2.43 1.38 5.09 3.81 6.22 5.02.87.92 1.64 2.19 1.64 3.38 0 3.41-5.09 4.34-7.3 4.75l-1.41-2.81zm7.94-7.36c-1.04-1.47-1.6-2.06-2.19-2.57l1.34-1c1.15.98 1.94 2.09 2.21 2.43l-1.36 1.13zm2.34-1.72c-.68-.94-1.17-1.49-2.19-2.41l1.36-.98c.92.81 1.45 1.34 2.17 2.3z"/><path d="m68.43 24.34v14.47h-14.9v-14.47zm-3.17 2.85h-8.66v8.77h8.66z"/><path d="m76.54 32.72c-2.26-1.19-4.24-1.81-5.55-2.19l1-2.57c.89.21 3.7.96 5.66 2l-1.11 2.75zm-4.49 3.62c6.41-.62 10.19-2.06 12.64-10.13l2.75 1.43c-2.87 8.43-7 10.92-14.54 11.92l-.85-3.23zm6.15-8.19c-2.04-1-3.58-1.51-5.7-2.06l1.08-2.55c2.15.47 3.75.96 5.81 1.85l-1.19 2.75zm5.39-2.4c-.04-.25-.32-1.87-.74-2.98l1.68-.26c.17.45.43 1.06.83 2.89l-1.77.36zm2.75-.43c-.15-.77-.45-1.89-.83-2.73l1.64-.26c.49 1.06.83 2.49.87 2.66l-1.68.34z"/><path d="m88.63 37.19c4.24-1.7 8.26-5.13 10.28-10.34h-9.15v-2.85h13.17c-.19 1.13-.75 4.26-3.41 8.04 2.21 1.6 4.28 3.38 6.19 5.3l-2.55 2.49c-1.7-1.96-4.3-4.53-5.47-5.51-3.4 3.7-6.04 4.85-7.34 5.39l-1.72-2.53z"/><path d="m122.88 28.46v2.79h-5.94l-.02.3c-.3 4.7-2.49 7.19-8.17 8.26l-1.23-2.66c4.32-.66 6.07-2.04 6.28-5.58l.02-.32h-6.9v-2.79zm-1.51-4.79v2.79h-12.94v-2.79z"/><path d="m132.18 39.94h-2.79v-6.24c-2.45 1.43-4.24 2.02-5.19 2.32l-1.47-2.34c1.89-.62 3.85-1.3 6.24-2.87 2-1.3 3.83-2.87 5.28-4.77l2.3 1.79c-.6.66-1.96 2.19-4.38 4.02v8.09z"/><path d="m153.18 25.38c-1.57 10.66-7.38 13.47-13.69 14.39l-1.23-2.77c4.6-.62 9.28-1.91 11.15-8.83h-5.85c-2.07 2.62-3.83 3.7-4.49 4.09l-1.96-2.21c1.09-.62 4.4-2.51 6.13-7.22l3.21.41c-.25.58-.45 1.09-1 2.13h7.73z"/><path d="m154.65 37.19c4.24-1.7 8.26-5.13 10.28-10.34h-9.15v-2.85h13.17c-.19 1.13-.75 4.26-3.41 8.04 2.21 1.6 4.28 3.38 6.19 5.3l-2.55 2.49c-1.7-1.96-4.3-4.53-5.47-5.51-3.4 3.7-6.04 4.85-7.34 5.39l-1.72-2.53z"/><path d="m183.4 24.91v-2.26h2.57v2.26h3.63v2.55h-3.63v1.71h3.92v2.57h-3.18c1.31 2.32 2.75 3.34 3.5 3.85l-1.06 3.04c-1.4-1.1-2.44-2.57-3.18-4.17v5.19h-2.57v-5.61c-.81 1.74-1.98 3.31-3.4 4.62l-1.58-2.53c2.07-1.33 3.14-2.84 4.02-4.38h-3.14c.39.5.56.66.81.9l-1.54 2.05c-.75-1.42-.84-1.78-1.02-2.52v7.47h-2.48v-6.79c-.61 2.07-1.28 3.09-1.69 3.7l-.84-3.54c1.06-1.33 1.54-2.37 2.33-4.92h-1.99v-2.48h2.19v-2.96h2.48v2.96h1.71v1.1c.86-1.67 1.08-3.18 1.15-3.74l2.41.23c-.07.45-.16.9-.34 1.71h.93zm-2.82 4.26-1.47-1.08h-1.56v.79c.34.83.97 1.81 1.71 2.78v-2.5h1.33zm2.82 0v-1.71h-1.71c-.36.86-.74 1.47-.9 1.71z"/><path d="m191.39 36.45c.11-.02 3.02-.22 3.34-.25v-4.31h-2.86v-2.61h8.41v2.61h-2.8v4.1c2.01-.22 2.82-.36 3.43-.47l.04 2.55c-2.03.41-2.89.5-9.27 1.2zm15.4-11.34h1.71v2.6h-5.01c.11 1.72.31 4.94 1.33 7.3.11.27.5 1.2.95 1.2.48 0 1.45-1.24 1.89-2.44l1.13 2.86c-.29.81-1.19 3.05-2.97 3.05-.83 0-1.69-.47-2.17-1.01-2.6-2.84-2.8-8.01-2.91-10.96h-9.2v-2.6h9.11c-.02-.29-.09-2.37-.09-2.5h2.87v2.5h1.76c-.47-.68-.83-1.22-1.31-1.67l2.32-.93c.27.2.5.36 1.72 2.1z"/><path d="m213.21 28.58c-1.42.86-2.07 1.13-2.73 1.38l-1.36-2.73c4.38-1.72 6.25-3.23 7.31-4.73h3.2c.77.92 2.61 2.95 7.22 4.69l-1.4 2.71c-.54-.23-1.4-.61-2.68-1.38v1.1h-9.56zm10.33 11.25c-.18-.34-.38-.72-.72-1.26-3.05.43-9.16.68-12.4.77l-.43-2.78c.09.02 2.37.02 2.62.02.14-.29.74-1.49 1.26-3.11h-4.01v-2.59h16.21v2.59h-3.72c.81.88 2.01 2.19 3.77 5.01l-2.59 1.35zm-2.73-12.61c-1.56-1.17-2.34-2.03-2.8-2.53-.43.56-1.13 1.31-2.77 2.53zm1.11 6.25h-5.05c-.65 1.51-.86 1.98-1.42 3.11 2.12-.02 4.06-.02 5.86-.2-.75-1.01-1.15-1.47-1.51-1.9z"/><path d="m232.48 39.66h-2.73v-5.98c-.74.63-1.38 1.08-1.9 1.44l-.68-3.18c2.01-1.2 3.66-3.14 4.26-4.31h-3.93v-2.52h2.26v-2.46h2.73v2.46h1.83v2.52c-.27.66-.56 1.33-1.44 2.6.99 1.08 1.82 1.56 2.46 1.92l-1.35 2.57c-.38-.36-.86-.81-1.51-1.72v6.67zm5.34-17.01h2.8v4.46h3.5v2.77h-3.5v6.58h3.77v2.73h-10.69v-2.73h4.12v-6.58h-3.23v-2.77h3.23z"/></g><path d="m4.79.1c-.34-.03-3.56-.05-4.07 0-.54.05-.72.28-.72.84v14.99c0 .68.47.66.95.69.32.02 3.4.02 3.75 0 .72-.05.76-.42.76-1.05 0-1.07 0-13.61 0-14.69 0-.51-.12-.72-.66-.78" fill="#e60012"/><path d="m27.89 14.8c1.06-1.42 1.21-4.35-1.5-5.83-1.54-.84-9.62-3.46-11.29-4.13-.47-.19-.6-.4-.54-.67.08-.33.54-.32.74-.33.18 0 1.84.01 11.89.05.56 0 .82-.14.89-.72.03-.29.02-1.98 0-2.16-.02-.65-.13-.92-.87-.92-.83 0-10.69-.04-13.79.07-3.47.13-4.5 1.76-4.75 3.43-.24 1.63.37 3.17 1.93 4.12 1.49.91 6.63 2.49 11.37 4.2.76.28.83.55.71.79-.08.17-.43.2-.88.2-1.18 0-11.26-.15-11.87-.13-.74.02-.87.24-.89 1.01v1.76c0 .72.13.99.85.99 4.27.04 11.64.08 13.2.03 2.48-.08 3.84-.5 4.79-1.77" fill="#e60012"/><path d="m73.12 2.21c-.63-1.46-1.91-2.05-4.52-2.14-2.02-.07-13.51 0-13.78 0-.81.01-.86.33-.87 1.04 0 .18 0 1.8.02 2.07.05.59.45.66.86.66.27 0 11.38-.07 12.14-.07.36 0 .5.12.53.35.02.2-.09.32-.36.44-3.41 1.57-9.13 4.05-10.83 4.88-2.48 1.21-3.06 2.62-2.92 4.03.15 1.57 1.11 2.96 4.62 3.07 3.08.1 11.91-.03 14.08-.08.78-.02.82-.31.88-.86.03-.23.01-1.47 0-1.65 0-.99-.11-1.22-.97-1.21-.67 0-9.32.18-11.78.15-.39 0-.5-.21-.37-.44.08-.14.34-.28.83-.5 2.07-.93 7.75-3.29 10.61-5 1.7-1.02 2.66-2.79 1.84-4.72" fill="#e60012"/><path d="m49.72.07c-.51-.04-3.61-.04-3.93 0-.4.05-.75.11-.75.85v8.8c0 1.74-.28 2.9-2.4 3.04-1.25.08-2.15.08-3.34-.03-2.01-.18-2.4-.87-2.4-3.29 0-1.51.02-7.77.02-8.38 0-.61-.06-.94-.8-.97-.53-.02-3.45-.02-3.78 0-.39.02-.79.11-.79.86 0 .45-.04 5.64 0 9.97.05 5.6 3.87 5.46 5.66 5.61 1.09.09 5.91.11 8.06-.05 3.91-.29 4.98-2.31 5.07-5.15.06-1.87.11-8.63.08-10.29-.01-.62-.11-.91-.71-.96" fill="#e60012"/><path d="m95.58.92c0-.55-.13-.86-.72-.9-.56-.04-3.53-.03-3.8 0-.63.05-.79.23-.81.82 0 .47-.01 7.93-.04 9.26-.04 1.95-.69 2.21-1.62 2.45-.94.24-3.98.17-4.36.12-1.18-.15-1.93-.62-1.95-2.55-.03-1.86-.02-8.65-.02-9.26s-.25-.79-.76-.82c-.45-.03-3.22-.04-3.87 0-.77.05-.81.37-.82.95-.02 1.14-.04 9.26.08 10.62.29 3.21 1.85 4.52 4.58 4.74 2.53.21 8.55.25 10.38-.18 2.95-.69 3.55-3 3.69-5.91.07-1.53.04-8.65.04-9.35" fill="#e60012"/></svg>